<svg xmlns="http://www.w3.org/2000/svg" fill="none" viewBox="0 0 50 50" id="Playwright--Streamline-Svg-Logos" height="50" width="50">
  <desc>
    Playwright Streamline Icon: https://streamlinehq.com
  </desc>
  <path fill="#2d4552" d="M16.658020833333335 27.37859375c-1.8276041666666667 0.5186979166666668 -3.0266145833333336 1.4280729166666666 -3.8164583333333337 2.3367708333333335 0.7565104166666666 -0.66203125 1.7698437500000002 -1.2696354166666668 3.136822916666667 -1.657135416666667 1.398125 -0.39625000000000005 2.5908854166666666 -0.39338541666666665 3.5764583333333335 -0.20322916666666668v-0.7706770833333334c-0.8407291666666667 -0.07687500000000001 -1.804635416666667 -0.015625 -2.896822916666667 0.2942708333333333Zm-3.9000000000000004 -6.478697916666667 -6.787395833333334 1.7881770833333335s0.12369791666666667 0.17473958333333336 0.35270833333333335 0.40786458333333336l5.754895833333334 -1.5164062500000002s-0.0815625 1.0508333333333333 -0.7897395833333334 1.9908333333333335c1.3395833333333336 -1.0134895833333333 1.46953125 -2.6704687500000004 1.46953125 -2.6704687500000004Zm5.681510416666667 15.951562500000001C8.8878125 39.424114583333335 3.834338541666667 28.354687500000004 2.304348958333333 22.609218750000004c-0.706875 -2.652083333333333 -1.0154479166666668 -4.6606250000000005 -1.0976927083333334 -5.956822916666667 -0.008838541666666666 -0.13458333333333336 -0.0047552083333333335 -0.24802083333333336 0.004760416666666667 -0.3519791666666667 -0.49548958333333337 0.029895833333333337 -0.7327114583333334 0.28744791666666664 -0.6844479166666667 1.0317708333333335 0.08224479166666666 1.29546875 0.39082291666666674 3.3039062500000003 1.0976979166666667 5.956822916666667C3.1539739583333333 29.03359375 8.208125 40.10302083333333 17.75989583333333 37.530416666666675c2.0790625 -0.5601041666666666 3.640989583333334 -1.5802604166666667 4.813489583333333 -2.8825520833333336 -1.0807291666666667 0.9760937500000001 -2.4333333333333336 1.7447916666666667 -4.1338541666666675 2.20359375Zm1.7949479166666666 -22.726145833333334v0.6797916666666667h3.7465625c-0.07687500000000001 -0.24067708333333335 -0.15432291666666667 -0.45755208333333336 -0.2311979166666667 -0.6797916666666667h-3.5153645833333336Z" stroke-width="0.5208"></path>
  <path fill="#2d4552" d="M24.81854166666667 19.723645833333332c1.6848958333333335 0.47848958333333336 2.576041666666667 1.6597916666666668 3.0470312500000003 2.7052083333333337l1.8786458333333336 0.5335416666666667s-0.25625000000000003 -3.658697916666667 -3.5656770833333336 -4.59875c-3.0959895833333335 -0.8796354166666668 -5.0011979166666665 1.7202083333333333 -5.232916666666667 2.0566666666666666 0.9006250000000001 -0.6416666666666667 2.21578125 -1.166979166666667 3.872916666666667 -0.6966666666666667Zm14.954531250000002 2.7220833333333334c-3.0988020833333336 -0.88359375 -5.00328125 1.721666666666667 -5.231614583333334 2.053385416666667 0.9013020833333334 -0.6408854166666667 2.21578125 -1.16640625 3.8721875 -0.6939583333333333 1.6821875000000002 0.47927083333333337 2.572604166666667 1.6591145833333336 3.0450520833333337 2.7052604166666665l1.8813541666666669 0.5355208333333333s-0.2604166666666667 -3.6594270833333336 -3.566979166666667 -4.600208333333334Zm-1.8664583333333336 9.646875 -15.628072916666667 -4.369010416666668s0.16916666666666666 0.8577604166666667 0.8183333333333334 1.9684375l13.158125000000002 3.678489583333334c1.08328125 -0.6267708333333334 1.6516145833333336 -1.2779166666666666 1.6516145833333336 -1.2779166666666666ZM27.071614583333336 41.49682291666667C14.697239583333333 38.17916666666667 16.19322916666667 22.412552083333335 18.195572916666666 14.941302083333335c0.8244270833333334 -3.0789583333333335 1.6720312500000003 -5.367447916666667 2.3748958333333334 -6.901510416666667 -0.41937500000000005 -0.08630208333333333 -0.76671875 0.13458333333333336 -1.1099479166666668 0.8326041666666667 -0.7463020833333334 1.5136979166666666 -1.7006250000000003 3.978229166666667 -2.6242187500000003 7.428333333333334 -2.0017708333333335 7.4710937500000005 -3.4978125 23.2371875 8.876041666666667 26.554843750000003 5.832395833333334 1.5625 10.375989583333334 -0.8122916666666667 13.763020833333334 -4.5417708333333335 -3.214947916666667 2.911875 -7.319635416666666 4.544427083333334 -12.40375 3.1830208333333334Z" stroke-width="0.5208"></path>
  <path fill="#e2574c" d="M20.234583333333337 33.15661458333334V29.975l-8.839947916666667 2.506666666666667s0.6531770833333334 -3.7953125 5.2634895833333335 -5.103125c1.398125 -0.39625000000000005 2.591041666666667 -0.39354166666666673 3.5764583333333335 -0.20322916666666668V14.125260416666668h4.426197916666667c-0.4819270833333334 -1.4892187500000003 -0.9481250000000001 -2.6357291666666667 -1.3396875000000001 -3.4323958333333335 -0.6477604166666667 -1.31859375 -1.3117708333333336 -0.4444791666666667 -2.819270833333334 0.8163541666666667 -1.0617708333333336 0.88703125 -3.74515625 2.7792708333333334 -7.783125000000001 3.8673958333333336 -4.038072916666667 1.0888020833333334 -7.302604166666668 0.8000520833333334 -8.664708333333335 0.5641666666666667 -1.9310052083333336 -0.333125 -2.941026041666667 -0.7571875 -2.8465364583333335 0.7115625000000001 0.08222916666666667 1.29546875 0.39082291666666674 3.3040625 1.0976927083333334 5.956822916666667C3.8344427083333334 28.353906250000005 8.88859375 39.42333333333334 18.4403125 36.85072916666667c2.4950520833333334 -0.6722916666666667 4.256145833333333 -2.00109375 5.476875 -3.694791666666667h-3.6826041666666667v0.0006770833333333334ZM5.970052083333334 22.688020833333336l6.788072916666667 -1.7881770833333335s-0.19786458333333334 2.6113541666666666 -2.7426041666666667 3.2821875000000005c-2.5454166666666667 0.67015625 -4.04546875 -1.4940104166666668 -4.04546875 -1.4940104166666668Z" stroke-width="0.5208"></path>
  <path fill="#2ead33" d="M45.78140625 14.276041666666668c-1.7644791666666668 0.30932291666666667 -5.99765625 0.6946875000000001 -11.229114583333333 -0.7075520833333334 -5.232916666666667 -1.4014062500000002 -8.704895833333333 -3.8524479166666667 -10.080468750000001 -5.00453125 -1.9500000000000002 -1.63328125 -2.807760416666667 -2.768385416666667 -3.6519270833333337 -1.0514583333333334 -0.7463020833333334 1.514322916666667 -1.7006770833333333 3.97890625 -2.6244270833333334 7.429010416666667 -2.0016145833333336 7.4710937500000005 -3.4976041666666666 23.2371875 8.87609375 26.554791666666667 12.371093750000002 3.31484375 18.9571875 -11.087864583333333 20.958958333333335 -18.55963541666667 0.9237500000000001 -3.449427083333333 1.3288020833333334 -6.061458333333333 1.4402604166666666 -7.745677083333335 0.12708333333333333 -1.9078645833333334 -1.1833854166666669 -1.3540625000000002 -3.689375 -0.9149479166666667ZM20.920416666666668 20.4571875s1.9500000000000002 -3.0328125000000004 5.2573437499999995 -2.0928125000000004c3.3094270833333335 0.9400520833333333 3.5656770833333336 4.598802083333334 3.5656770833333336 4.598802083333334l-8.823020833333334 -2.505989583333333ZM28.993750000000002 34.06666666666667c-5.817395833333333 -1.7041145833333335 -6.714583333333334 -6.343020833333333 -6.714583333333334 -6.343020833333333l15.627343750000001 4.369166666666667c0 -0.0007291666666666667 -3.1543750000000004 3.6566145833333334 -8.912760416666668 1.973854166666667Zm5.5252083333333335 -9.533437500000002s1.9472916666666666 -3.0307291666666667 5.254010416666667 -2.0880208333333337c3.3066145833333334 0.9414583333333334 3.566979166666667 4.600208333333334 3.566979166666667 4.600208333333334l-8.820989583333333 -2.5121875000000005Z" stroke-width="0.5208"></path>
  <path fill="#d65348" d="M17.145625000000003 30.85109375 11.394791666666668 32.48098958333334s0.6246875000000001 -3.5588020833333336 4.8611458333333335 -4.969114583333333l-3.2564062500000004 -12.22078125 -0.28140625 0.08552083333333335c-4.038020833333333 1.0889583333333335 -7.3025520833333335 0.8000520833333334 -8.664645833333333 0.5641666666666667 -1.9309947916666668 -0.33296875000000004 -2.941010416666667 -0.7571875 -2.8465364583333335 0.7117187500000001 0.08224479166666666 1.29546875 0.39082291666666674 3.3039062500000003 1.0976927083333334 5.956770833333334 1.5293072916666668 5.744635416666667 6.583489583333334 16.814062500000002 16.13515625 14.241458333333334l0.28140625 -0.08838541666666666 -1.5755729166666668 -5.911250000000001ZM5.970208333333334 22.688125000000003l6.788072916666667 -1.78828125s-0.19786458333333334 2.6113541666666666 -2.7425520833333334 3.2821875000000005c-2.54546875 0.67015625 -4.045520833333334 -1.4939062500000002 -4.045520833333334 -1.4939062500000002Z" stroke-width="0.5208"></path>
  <path fill="#1d8d22" d="m29.256145833333335 34.130468750000006 -0.263125 -0.06395833333333334c-5.81734375 -1.7039583333333335 -6.714583333333334 -6.342864583333334 -6.714583333333334 -6.342864583333334l8.0584375 2.2525 4.266302083333334 -16.3940625 -0.05161458333333333 -0.013593750000000002c-5.232916666666667 -1.4014062500000002 -8.7046875 -3.8524479166666667 -10.080468750000001 -5.00453125 -1.9500000000000002 -1.63328125 -2.807760416666667 -2.768385416666667 -3.6519270833333337 -1.0514583333333334 -0.7455729166666667 1.514322916666667 -1.699947916666667 3.97890625 -2.6236979166666665 7.429010416666667 -2.0016145833333336 7.4710937500000005 -3.4976041666666666 23.2371875 8.87609375 26.5546875l0.25359375 0.057135416666666675 1.9309895833333335 -7.422864583333333ZM20.920416666666668 20.457239583333337s1.9500000000000002 -3.0328645833333336 5.2573437499999995 -2.0928645833333337c3.3094270833333335 0.9400520833333333 3.5656770833333336 4.598802083333334 3.5656770833333336 4.598802083333334l-8.823020833333334 -2.5059375Z" stroke-width="0.5208"></path>
  <path fill="#c04b41" d="m17.438645833333332 30.76729166666667 -1.5422395833333336 0.43770833333333337c0.3643229166666667 2.0539583333333336 1.0065104166666667 4.025104166666667 2.01453125 5.7664583333333335 0.17541666666666667 -0.03875 0.3494270833333334 -0.07203125 0.5281250000000001 -0.12098958333333334 0.4683333333333334 -0.12635416666666668 0.9026041666666668 -0.2828125 1.3207291666666667 -0.45343750000000005 -1.12625 -1.6713020833333334 -1.8713020833333336 -3.596197916666667 -2.3211458333333335 -5.629739583333334Zm-0.6022395833333334 -14.466458333333335c-0.7925000000000001 2.95796875 -1.5015104166666666 7.215520833333334 -1.3063541666666667 11.485937500000002 0.34932291666666665 -0.15161458333333336 0.7183333333333334 -0.2928645833333334 1.1282291666666666 -0.4091666666666667l0.2855208333333334 -0.06380208333333334c-0.3480729166666667 -4.561510416666668 0.4043229166666667 -9.209791666666668 1.2519270833333336 -12.372395833333334 0.21484375 -0.8000520833333334 0.43026041666666665 -1.5442187500000002 0.645 -2.2382291666666667 -0.3458854166666667 0.22015625000000003 -0.7183333333333334 0.44578125 -1.1425520833333336 0.6782291666666668 -0.28609375000000004 0.8830208333333334 -0.5750000000000001 1.8481770833333335 -0.8617708333333335 2.9194270833333333Z" stroke-width="0.5208"></path>
</svg>